<svg id="Capa_1" data-name="Capa 1" xmlns="http://www.w3.org/2000/svg" xmlns:xlink="http://www.w3.org/1999/xlink" viewBox="0 0 711.43 215.26"><defs><style>.cls-1{fill:#eaeaea;}.cls-2{fill:url(#Degradado_sin_nombre_64);}</style><linearGradient id="Degradado_sin_nombre_64" x1="2336.16" y1="1234.06" x2="2505.06" y2="1234.06" gradientUnits="userSpaceOnUse"><stop offset="0" stop-color="#0da5a4"/><stop offset="1" stop-color="#0dc9be"/></linearGradient></defs><title>Omega marca</title><path class="cls-1" d="M2685.91,1241.69V1315h-20.8V1247c0-16.88-9.7-26.81-23.57-26.81-11.56,0-20.8,5.31-28,14.33a67.44,67.44,0,0,1,.47,7.16V1315h-20.57V1247c0-16.88-9.25-26.81-23.11-26.81-11.79,0-21,5.77-28.2,14.79v80h-20.8V1204h20.34v10.63a45.76,45.76,0,0,1,33.51-14.33c12.71,0,24.27,5.09,31.2,15.26,6.24-6,18.49-15.26,38.37-15.26C2666,1200.32,2685.91,1214.65,2685.91,1241.69Z" transform="translate(-2336.16 -1149.61)"/><path class="cls-1" d="M2700.7,1259c0-35.59,25.19-58.7,54.54-58.7,34.44,0,54.31,25,54.31,59.86a56.79,56.79,0,0,1-.46,7.39h-86c.92,18.49,16,31.67,34.67,31.67,18,0,31.43-5.09,46.45-16.87v20.56c-9.48,7.4-23.8,15.49-46.45,15.49C2726.82,1318.42,2700.7,1298.31,2700.7,1259Zm86.21-9.47c-.47-17.57-11.56-30-31.67-30-18.25,0-30.5,14.1-31.43,30Z" transform="translate(-2336.16 -1149.61)"/><path class="cls-1" d="M2829.43,1351.47v-21.73c15.25,10.63,33.05,15.72,46.22,15.72,23.34,0,36.28-10.17,36.28-33.28v-14.33c-7.39,8.32-20.1,15.25-37.44,15.25-29.12,0-52-21.49-52-56.39s22.88-56.39,52-56.39c17.34,0,30.05,6.93,37.44,15.26V1204h20.8v108.16c0,27.5-15.25,52.69-57.08,52.69A89.23,89.23,0,0,1,2829.43,1351.47Zm82.5-76.27v-37c-6.24-9.47-18.95-18.25-33.74-18.25-17.56,0-33.74,12.48-33.74,36.74,0,26.58,16.18,36.75,33.74,36.75C2892.75,1293.46,2905.23,1284.68,2911.93,1275.2Z" transform="translate(-2336.16 -1149.61)"/><path class="cls-1" d="M2952.61,1279.59c0-22.88,20.1-36,42.75-36,12.48,0,24.27,3,31.43,6.93v-11.78c0-10.87-8.32-19.88-25.42-19.88-16.18,0-32.12,6.24-42.29,12.71v-21a92.13,92.13,0,0,1,42.29-10.17c33.05,0,46.22,19,46.22,40.68v74h-20.1v-9a46.7,46.7,0,0,1-32.13,12.48C2970.4,1318.42,2952.61,1304.32,2952.61,1279.59Zm74.18,9.94v-20.34c-4.16-3.23-15-8.32-27.73-8.32-14.1,0-24.73,6.7-24.73,18.72,0,12.94,10.63,21,24.73,21A41.47,41.47,0,0,0,3026.79,1289.53Z" transform="translate(-2336.16 -1149.61)"/><path class="cls-2" d="M2420.61,1149.61a84.45,84.45,0,1,0,84.45,84.45A84.45,84.45,0,0,0,2420.61,1149.61Zm0,146.18a61.73,61.73,0,1,1,61.73-61.73A61.73,61.73,0,0,1,2420.61,1295.79Z" transform="translate(-2336.16 -1149.61)"/></svg>